<svg width="4072" height="2415" viewBox="0 0 4072 2415" fill="none" xmlns="http://www.w3.org/2000/svg">
<g clip-path="url(#clip0_252_44)">
<rect x="2.49633" y="2.01146" width="4067.1" height="2410.81" rx="129.091" fill="white" stroke="#C9CDD6" stroke-width="3.353"/>
<g filter="url(#filter0_f_252_44)">
<path d="M3784.8 2388.05C3851.89 2428.29 3836.68 2452.61 3739.18 2461.01C3641.67 2469.41 3567.87 2478.25 3517.78 2487.54C3467.68 2496.82 3418.48 2525.12 3370.18 2572.43C3321.87 2619.75 3266.86 2627.93 3205.13 2596.97C3143.41 2566.02 3075.42 2547.01 3001.17 2539.94C2926.93 2532.86 2865.2 2514.73 2816 2485.55C2766.8 2456.37 2741.76 2422.76 2740.86 2384.74C2739.97 2346.71 2753.83 2311.56 2782.46 2279.28C2811.08 2247 2825.84 2208.31 2826.74 2163.21C2827.63 2118.11 2870.57 2091.58 2955.55 2083.63C3040.53 2075.67 3118.81 2071.24 3190.37 2070.36C3261.94 2069.48 3315.16 2091.58 3350.05 2136.68C3384.94 2181.79 3432.35 2201.46 3492.28 2195.71C3552.22 2189.96 3628.25 2191.29 3720.39 2199.69C3812.53 2208.09 3829.53 2231.53 3771.38 2270C3713.24 2308.46 3717.71 2347.82 3784.8 2388.05Z" fill="url(#paint0_radial_252_44)"/>
</g>
<g filter="url(#filter1_f_252_44)">
<path d="M4794.8 1363.05C4861.89 1403.29 4846.68 1427.61 4749.18 1436.01C4651.67 1444.41 4577.87 1453.25 4527.78 1462.54C4477.68 1471.82 4428.48 1500.12 4380.18 1547.43C4331.87 1594.75 4276.86 1602.93 4215.13 1571.97C4153.41 1541.02 4085.42 1522.01 4011.17 1514.94C3936.93 1507.86 3875.2 1489.73 3826 1460.55C3776.8 1431.37 3751.76 1397.76 3750.86 1359.74C3749.97 1321.71 3763.83 1286.56 3792.46 1254.28C3821.08 1222 3835.84 1183.31 3836.74 1138.21C3837.63 1093.11 3880.57 1066.58 3965.55 1058.63C4050.53 1050.67 4128.81 1046.24 4200.37 1045.36C4271.94 1044.48 4325.16 1066.58 4360.05 1111.68C4394.94 1156.78 4442.35 1176.46 4502.28 1170.71C4562.22 1164.96 4638.25 1166.29 4730.39 1174.69C4822.53 1183.09 4839.53 1206.53 4781.38 1245C4723.24 1283.46 4727.71 1322.82 4794.8 1363.05Z" fill="url(#paint1_radial_252_44)"/>
</g>
<g filter="url(#filter2_f_252_44)">
<path d="M4202.09 2236.75C4249.08 2286.96 4238.43 2317.3 4170.13 2327.78C4101.83 2338.26 4050.14 2349.3 4015.05 2360.88C3979.96 2372.47 3945.5 2407.78 3911.66 2466.81C3877.82 2525.84 3839.29 2536.04 3796.05 2497.43C3752.82 2458.81 3705.2 2435.09 3653.19 2426.26C3601.18 2417.43 3557.95 2394.81 3523.48 2358.4C3489.02 2321.99 3471.47 2280.06 3470.85 2232.62C3470.22 2185.17 3479.93 2141.31 3499.99 2101.04C3520.04 2060.77 3530.37 2012.49 3531 1956.22C3531.63 1899.95 3561.7 1866.85 3621.23 1856.92C3680.76 1846.99 3735.59 1841.47 3785.71 1840.37C3835.84 1839.26 3873.12 1866.85 3897.56 1923.12C3922 1979.39 3955.21 2003.94 3997.19 1996.77C4039.17 1989.6 4092.43 1991.25 4156.97 2001.74C4221.51 2012.22 4233.42 2041.46 4192.69 2089.45C4151.96 2137.45 4155.09 2186.55 4202.09 2236.75Z" fill="url(#paint2_radial_252_44)"/>
</g>
<g filter="url(#filter3_f_252_44)">
<path d="M427.087 2471.75C474.081 2521.96 463.429 2552.3 395.13 2562.78C326.831 2573.26 275.137 2584.3 240.048 2595.88C204.958 2607.47 170.495 2642.78 136.659 2701.81C102.823 2760.84 64.2872 2771.04 21.052 2732.43C-22.1832 2693.81 -69.8045 2670.09 -121.812 2661.26C-173.82 2652.43 -217.055 2629.81 -251.518 2593.4C-285.98 2556.99 -303.525 2515.06 -304.152 2467.62C-304.778 2420.17 -295.066 2376.31 -275.015 2336.04C-254.964 2295.77 -244.625 2247.49 -243.998 2191.22C-243.372 2134.95 -213.295 2101.85 -153.768 2091.92C-94.2418 2081.99 -39.4146 2076.47 10.7131 2075.37C60.8409 2074.26 98.1234 2101.85 122.561 2158.12C146.998 2214.39 180.208 2238.94 222.189 2231.77C264.171 2224.6 317.432 2226.25 381.972 2236.74C446.511 2247.22 458.416 2276.46 417.688 2324.45C376.959 2372.45 380.092 2421.55 427.087 2471.75Z" fill="url(#paint3_radial_252_44)"/>
</g>
</g>
<defs>
<filter id="filter0_f_252_44" x="2475.32" y="1804.83" width="1616" height="1076" filterUnits="userSpaceOnUse" color-interpolation-filters="sRGB">
<feFlood flood-opacity="0" result="BackgroundImageFix"/>
<feBlend mode="normal" in="SourceGraphic" in2="BackgroundImageFix" result="shape"/>
<feGaussianBlur stdDeviation="132.75" result="effect1_foregroundBlur_252_44"/>
</filter>
<filter id="filter1_f_252_44" x="3485.32" y="779.835" width="1616" height="1076" filterUnits="userSpaceOnUse" color-interpolation-filters="sRGB">
<feFlood flood-opacity="0" result="BackgroundImageFix"/>
<feBlend mode="normal" in="SourceGraphic" in2="BackgroundImageFix" result="shape"/>
<feGaussianBlur stdDeviation="132.75" result="effect1_foregroundBlur_252_44"/>
</filter>
<filter id="filter2_f_252_44" x="3205.32" y="1574.83" width="1291" height="1211" filterUnits="userSpaceOnUse" color-interpolation-filters="sRGB">
<feFlood flood-opacity="0" result="BackgroundImageFix"/>
<feBlend mode="normal" in="SourceGraphic" in2="BackgroundImageFix" result="shape"/>
<feGaussianBlur stdDeviation="132.75" result="effect1_foregroundBlur_252_44"/>
</filter>
<filter id="filter3_f_252_44" x="-569.68" y="1809.83" width="1291" height="1211" filterUnits="userSpaceOnUse" color-interpolation-filters="sRGB">
<feFlood flood-opacity="0" result="BackgroundImageFix"/>
<feBlend mode="normal" in="SourceGraphic" in2="BackgroundImageFix" result="shape"/>
<feGaussianBlur stdDeviation="132.75" result="effect1_foregroundBlur_252_44"/>
</filter>
<radialGradient id="paint0_radial_252_44" cx="0" cy="0" r="1" gradientUnits="userSpaceOnUse" gradientTransform="translate(3283.32 2342.83) rotate(90) scale(272.5 542.5)">
<stop stop-color="#538DE7"/>
<stop offset="1" stop-color="#95BEFC"/>
</radialGradient>
<radialGradient id="paint1_radial_252_44" cx="0" cy="0" r="1" gradientUnits="userSpaceOnUse" gradientTransform="translate(4293.32 1317.83) rotate(90) scale(272.5 542.5)">
<stop stop-color="#538DE7"/>
<stop offset="1" stop-color="#74AAFB"/>
</radialGradient>
<radialGradient id="paint2_radial_252_44" cx="0" cy="0" r="1" gradientUnits="userSpaceOnUse" gradientTransform="translate(3850.82 2180.33) rotate(90) scale(340 380)">
<stop stop-color="#7053E7" stop-opacity="0.58"/>
<stop offset="1" stop-color="#B073FF" stop-opacity="0.46"/>
</radialGradient>
<radialGradient id="paint3_radial_252_44" cx="0" cy="0" r="1" gradientUnits="userSpaceOnUse" gradientTransform="translate(75.8198 2415.33) rotate(90) scale(340 380)">
<stop stop-color="#7053E7" stop-opacity="0.58"/>
<stop offset="1" stop-color="#B073FF" stop-opacity="0.46"/>
</radialGradient>
<clipPath id="clip0_252_44">
<rect x="0.819824" y="0.334961" width="4070.45" height="2414.16" rx="130.75" fill="white"/>
</clipPath>
</defs>
</svg>
